<svg width="1440" height="800" viewBox="0 0 1440 800" fill="none" xmlns="http://www.w3.org/2000/svg">
<mask id="mask0" mask-type="alpha" maskUnits="userSpaceOnUse" x="0" y="0" width="1440" height="800">
<rect width="1440" height="800" fill="url(#paint0_linear)"/>
<rect width="1440" height="800" fill="black" fill-opacity="0.05"/>
</mask>
<g mask="url(#mask0)">
<rect width="1440" height="800" fill="url(#paint1_linear)"/>
<rect width="1440" height="800" fill="black" fill-opacity="0.05"/>
<g filter="url(#filter0_f)">
<rect x="578.843" y="-424" width="800" height="400" rx="200" transform="rotate(45 578.843 -424)" fill="#E87477" fill-opacity="0.8"/>
<rect x="578.843" y="-424" width="800" height="400" rx="200" transform="rotate(45 578.843 -424)" fill="black" fill-opacity="0.05"/>
</g>
<g filter="url(#filter1_f)">
<rect x="578.843" y="376" width="800" height="400" rx="200" transform="rotate(45 578.843 376)" fill="#FF9D8D" fill-opacity="0.8"/>
<rect x="578.843" y="376" width="800" height="400" rx="200" transform="rotate(45 578.843 376)" fill="black" fill-opacity="0.05"/>
</g>
<circle cx="208" cy="800" r="349.5" stroke="#E1E4E8"/>
<circle cx="717" cy="520" r="699.5" stroke="#E1E4E8"/>
<g filter="url(#filter2_b)">
<rect x="1176" y="715.469" width="392" height="252.638" rx="16" transform="rotate(-45 1176 715.469)" fill="url(#paint2_linear)" fill-opacity="0.6"/>
<rect x="1176.71" y="715.469" width="391" height="251.638" rx="15.5" transform="rotate(-45 1176.71 715.469)" stroke="#FAFBFC"/>
</g>
<g filter="url(#filter3_b)">
<rect x="-188" y="186.186" width="392" height="252.638" rx="16" transform="rotate(-45 -188 186.186)" fill="url(#paint3_linear)" fill-opacity="0.6"/>
<rect x="-187.293" y="186.186" width="391" height="251.638" rx="15.5" transform="rotate(-45 -187.293 186.186)" stroke="#FAFBFC"/>
</g>
</g>
<defs>
<filter id="filter0_f" x="196" y="-524" width="1048.53" height="1048.53" filterUnits="userSpaceOnUse" color-interpolation-filters="sRGB">
<feFlood flood-opacity="0" result="BackgroundImageFix"/>
<feBlend mode="normal" in="SourceGraphic" in2="BackgroundImageFix" result="shape"/>
<feGaussianBlur stdDeviation="50" result="effect1_foregroundBlur"/>
</filter>
<filter id="filter1_f" x="196" y="276" width="1048.53" height="1048.53" filterUnits="userSpaceOnUse" color-interpolation-filters="sRGB">
<feFlood flood-opacity="0" result="BackgroundImageFix"/>
<feBlend mode="normal" in="SourceGraphic" in2="BackgroundImageFix" result="shape"/>
<feGaussianBlur stdDeviation="50" result="effect1_foregroundBlur"/>
</filter>
<filter id="filter2_b" x="1172" y="434.283" width="463.828" height="463.828" filterUnits="userSpaceOnUse" color-interpolation-filters="sRGB">
<feFlood flood-opacity="0" result="BackgroundImageFix"/>
<feGaussianBlur in="BackgroundImage" stdDeviation="2"/>
<feComposite in2="SourceAlpha" operator="in" result="effect1_backgroundBlur"/>
<feBlend mode="normal" in="SourceGraphic" in2="effect1_backgroundBlur" result="shape"/>
</filter>
<filter id="filter3_b" x="-192" y="-95" width="463.828" height="463.828" filterUnits="userSpaceOnUse" color-interpolation-filters="sRGB">
<feFlood flood-opacity="0" result="BackgroundImageFix"/>
<feGaussianBlur in="BackgroundImage" stdDeviation="2"/>
<feComposite in2="SourceAlpha" operator="in" result="effect1_backgroundBlur"/>
<feBlend mode="normal" in="SourceGraphic" in2="effect1_backgroundBlur" result="shape"/>
</filter>
<linearGradient id="paint0_linear" x1="0" y1="0" x2="679.245" y2="1222.64" gradientUnits="userSpaceOnUse">
<stop stop-color="#FF9D8D"/>
<stop offset="1" stop-color="#E87477"/>
</linearGradient>
<linearGradient id="paint1_linear" x1="0" y1="0" x2="679.245" y2="1222.64" gradientUnits="userSpaceOnUse">
<stop stop-color="#FF9D8D"/>
<stop offset="1" stop-color="#E87477"/>
</linearGradient>
<linearGradient id="paint2_linear" x1="1568" y1="840.229" x2="1176" y2="840.229" gradientUnits="userSpaceOnUse">
<stop stop-color="#FF9D8D"/>
<stop offset="1" stop-color="#E87477"/>
</linearGradient>
<linearGradient id="paint3_linear" x1="204" y1="310.945" x2="-188" y2="310.945" gradientUnits="userSpaceOnUse">
<stop stop-color="#FF9D8D"/>
<stop offset="1" stop-color="#E87477"/>
</linearGradient>
</defs>
</svg>
