<svg width="1440" height="1258" viewBox="0 0 1440 1258" fill="none" xmlns="http://www.w3.org/2000/svg">
<mask id="mask0" mask-type="alpha" maskUnits="userSpaceOnUse" x="0" y="0" width="1440" height="1260">
<rect width="1440" height="1260" fill="url(#paint0_linear)"/>
<rect width="1440" height="1260" fill="black" fill-opacity="0.05"/>
</mask>
<g mask="url(#mask0)">
<rect width="1440" height="1259" fill="url(#paint1_linear)"/>
<rect width="1440" height="1259" fill="black" fill-opacity="0.05"/>
<g filter="url(#filter0_f)">
<rect x="578.843" y="836" width="800" height="400" rx="200" transform="rotate(45 578.843 836)" fill="#FF9D8D" fill-opacity="0.8"/>
<rect x="578.843" y="836" width="800" height="400" rx="200" transform="rotate(45 578.843 836)" fill="black" fill-opacity="0.05"/>
</g>
<g filter="url(#filter1_f)">
<rect x="578.843" y="-424" width="800" height="400" rx="200" transform="rotate(45 578.843 -424)" fill="#E87477" fill-opacity="0.8"/>
<rect x="578.843" y="-424" width="800" height="400" rx="200" transform="rotate(45 578.843 -424)" fill="black" fill-opacity="0.05"/>
</g>
<path d="M893.5 136.5C893.5 518.681 583.681 828.5 201.5 828.5C-180.681 828.5 -490.5 518.681 -490.5 136.5C-490.5 -245.681 -180.681 -555.5 201.5 -555.5C583.681 -555.5 893.5 -245.681 893.5 136.5Z" stroke="#E1E4E8"/>
</g>
<defs>
<filter id="filter0_f" x="196" y="736" width="1048.53" height="1048.53" filterUnits="userSpaceOnUse" color-interpolation-filters="sRGB">
<feFlood flood-opacity="0" result="BackgroundImageFix"/>
<feBlend mode="normal" in="SourceGraphic" in2="BackgroundImageFix" result="shape"/>
<feGaussianBlur stdDeviation="50" result="effect1_foregroundBlur"/>
</filter>
<filter id="filter1_f" x="146" y="-574" width="1148.53" height="1148.53" filterUnits="userSpaceOnUse" color-interpolation-filters="sRGB">
<feFlood flood-opacity="0" result="BackgroundImageFix"/>
<feBlend mode="normal" in="SourceGraphic" in2="BackgroundImageFix" result="shape"/>
<feGaussianBlur stdDeviation="75" result="effect1_foregroundBlur"/>
</filter>
<linearGradient id="paint0_linear" x1="0" y1="0" x2="1248.85" y2="1427.26" gradientUnits="userSpaceOnUse">
<stop stop-color="#FF9D8D"/>
<stop offset="1" stop-color="#E87477"/>
</linearGradient>
<linearGradient id="paint1_linear" x1="0" y1="0" x2="1247.73" y2="1427.11" gradientUnits="userSpaceOnUse">
<stop stop-color="#FF9D8D"/>
<stop offset="1" stop-color="#E87477"/>
</linearGradient>
</defs>
</svg>
