<svg width="1440" height="800" viewBox="0 0 1440 800" fill="none" xmlns="http://www.w3.org/2000/svg">
<mask id="mask0" mask-type="alpha" maskUnits="userSpaceOnUse" x="0" y="0" width="1440" height="800">
<rect x="0.5" y="0.5" width="1439" height="799" fill="#FAFBFC"/>
<rect x="0.5" y="0.5" width="1439" height="799" stroke="url(#paint0_linear)"/>
<rect x="0.5" y="0.5" width="1439" height="799" stroke="black" stroke-opacity="0.05"/>
</mask>
<g mask="url(#mask0)">
<rect width="1440" height="800" fill="#FAFBFC"/>
<g filter="url(#filter0_f)">
<rect x="578.843" y="-424" width="800" height="400" rx="200" transform="rotate(45 578.843 -424)" fill="#FAFBFC"/>
<rect x="578.843" y="-424" width="800" height="400" rx="200" transform="rotate(45 578.843 -424)" fill="black" fill-opacity="0.05"/>
</g>
<g filter="url(#filter1_f)">
<rect x="578.843" y="376" width="800" height="400" rx="200" transform="rotate(45 578.843 376)" fill="#FAFBFC"/>
<rect x="578.843" y="376" width="800" height="400" rx="200" transform="rotate(45 578.843 376)" fill="black" fill-opacity="0.05"/>
</g>
<mask id="path-5-inside-1" fill="white">
<path d="M1840 800C1840 1020.91 1660.91 1200 1440 1200C1219.09 1200 1040 1020.91 1040 800C1040 579.086 1219.09 400 1440 400C1660.91 400 1840 579.086 1840 800Z"/>
</mask>
<path d="M1840 800C1840 1020.91 1660.91 1200 1440 1200C1219.09 1200 1040 1020.91 1040 800C1040 579.086 1219.09 400 1440 400C1660.91 400 1840 579.086 1840 800Z" stroke="url(#paint1_linear)" stroke-width="2" mask="url(#path-5-inside-1)"/>
<path d="M1840 800C1840 1020.91 1660.91 1200 1440 1200C1219.09 1200 1040 1020.91 1040 800C1040 579.086 1219.09 400 1440 400C1660.91 400 1840 579.086 1840 800Z" stroke="black" stroke-opacity="0.05" stroke-width="2" mask="url(#path-5-inside-1)"/>
<mask id="path-6-inside-2" fill="white">
<path d="M998 400C998 797.645 684.599 1120 298 1120C-88.5993 1120 -402 797.645 -402 400C-402 2.35498 -88.5993 -320 298 -320C684.599 -320 998 2.35498 998 400Z"/>
</mask>
<path d="M998 400C998 797.645 684.599 1120 298 1120C-88.5993 1120 -402 797.645 -402 400C-402 2.35498 -88.5993 -320 298 -320C684.599 -320 998 2.35498 998 400Z" stroke="url(#paint2_linear)" stroke-width="2" mask="url(#path-6-inside-2)"/>
<path d="M998 400C998 797.645 684.599 1120 298 1120C-88.5993 1120 -402 797.645 -402 400C-402 2.35498 -88.5993 -320 298 -320C684.599 -320 998 2.35498 998 400Z" stroke="black" stroke-opacity="0.05" stroke-width="2" mask="url(#path-6-inside-2)"/>
<rect x="1212.71" y="49.1859" width="391" height="251.638" rx="15.5" transform="rotate(-45 1212.71 49.1859)" fill="url(#paint3_linear)" fill-opacity="0.6" stroke="#FF9D8D"/>
</g>
<defs>
<filter id="filter0_f" x="196" y="-524" width="1048.53" height="1048.53" filterUnits="userSpaceOnUse" color-interpolation-filters="sRGB">
<feFlood flood-opacity="0" result="BackgroundImageFix"/>
<feBlend mode="normal" in="SourceGraphic" in2="BackgroundImageFix" result="shape"/>
<feGaussianBlur stdDeviation="50" result="effect1_foregroundBlur"/>
</filter>
<filter id="filter1_f" x="196" y="276" width="1048.53" height="1048.53" filterUnits="userSpaceOnUse" color-interpolation-filters="sRGB">
<feFlood flood-opacity="0" result="BackgroundImageFix"/>
<feBlend mode="normal" in="SourceGraphic" in2="BackgroundImageFix" result="shape"/>
<feGaussianBlur stdDeviation="50" result="effect1_foregroundBlur"/>
</filter>
<linearGradient id="paint0_linear" x1="0" y1="0" x2="679.245" y2="1222.64" gradientUnits="userSpaceOnUse">
<stop stop-color="#FF9D8D"/>
<stop offset="1" stop-color="#E87477"/>
</linearGradient>
<linearGradient id="paint1_linear" x1="1040" y1="400" x2="1840" y2="1200" gradientUnits="userSpaceOnUse">
<stop stop-color="#FF9D8D"/>
<stop offset="1" stop-color="#E87477"/>
</linearGradient>
<linearGradient id="paint2_linear" x1="-402" y1="-320" x2="1037.43" y2="1079.44" gradientUnits="userSpaceOnUse">
<stop stop-color="#FF9D8D"/>
<stop offset="1" stop-color="#E87477"/>
</linearGradient>
<linearGradient id="paint3_linear" x1="1604" y1="173.946" x2="1212" y2="173.946" gradientUnits="userSpaceOnUse">
<stop stop-color="#F5F8FA"/>
<stop offset="0.651748" stop-color="#F8FAFB"/>
<stop offset="1" stop-color="#FAFBFC"/>
</linearGradient>
</defs>
</svg>
