<svg width="384" height="256" viewBox="0 0 384 256" fill="none" xmlns="http://www.w3.org/2000/svg">
<mask id="mask0" style="mask-type:alpha" maskUnits="userSpaceOnUse" x="0" y="0" width="384" height="256">
<path d="M0 16C0 7.16344 7.16344 0 16 0H368C376.837 0 384 7.16344 384 16V240C384 248.837 376.837 256 368 256H16C7.16345 256 0 248.837 0 240V16Z" fill="#EB4763"/>
</mask>
<g mask="url(#mask0)">
<path d="M0 -1.32766e-06C0 -8.83656 7.16344 -16 16 -16H368C376.837 -16 384 -8.83656 384 -3.14385e-07V240C384 248.837 376.837 256 368 256H16C7.16345 256 0 248.837 0 240V-1.32766e-06Z" fill="#EB4763"/>
<rect x="33" y="57" width="222" height="174" rx="15" fill="#F1E1E6" stroke="#EB4763" stroke-width="2" stroke-dasharray="3 3"/>
<rect x="209" y="25" width="46" height="22" rx="11" fill="#EB4763" stroke="#F1E1E6" stroke-width="2" stroke-dasharray="3 3"/>
<rect x="177" y="25" width="22" height="22" rx="11" fill="#EB4763" stroke="#F1E1E6" stroke-width="2" stroke-dasharray="3 3"/>
<rect x="269" y="25" width="85" height="150" rx="15" fill="#F1E1E6" stroke="#EB4763" stroke-width="2" stroke-dasharray="3 3"/>
<rect x="308" y="54" width="25" height="6" rx="3" transform="rotate(-180 308 54)" fill="#574142"/>
<rect x="339" y="70" width="32" height="6" rx="3" transform="rotate(-180 339 70)" fill="#574142"/>
<rect x="323" y="80" width="40" height="6" rx="3" transform="rotate(-180 323 80)" fill="#574142"/>
<rect x="331" y="90" width="48" height="6" rx="3" transform="rotate(-180 331 90)" fill="#574142"/>
<rect x="336" y="120" width="18" height="18" rx="9" transform="rotate(-180 336 120)" stroke="#574142" stroke-width="6"/>
<rect x="304" y="120" width="18" height="18" rx="9" transform="rotate(-180 304 120)" stroke="#574142" stroke-width="6"/>
<rect x="299" y="70" width="16" height="6" rx="3" transform="rotate(-180 299 70)" fill="#574142"/>
</g>
<g clip-path="url(#clip0)">
<path d="M185.807 148.619C184.909 139.588 180.875 131.074 174.446 124.645C168.952 119.152 162.228 115.621 155.152 114.052V109.089C158.042 108.37 160.19 105.754 160.19 102.645C160.19 98.9833 157.211 96.0044 153.55 96.0044H139.487C135.825 96.0044 132.846 98.9833 132.846 102.645C132.846 105.754 134.994 108.37 137.884 109.089V114.066C130.83 115.642 124.128 119.167 118.65 124.646C117.451 125.845 116.346 127.102 115.334 128.409C115.285 128.405 115.236 128.402 115.186 128.402H101.267C100.189 128.402 99.3141 129.276 99.3141 130.355C99.3141 131.434 100.189 132.308 101.267 132.308H112.676C111.244 134.706 110.089 137.223 109.21 139.815H87.9532C86.8746 139.815 86 140.69 86 141.768C86 142.847 86.8746 143.722 87.9532 143.722H108.107C107.544 146.192 107.221 148.707 107.137 151.229H98.5002C97.4217 151.229 96.547 152.103 96.547 153.182C96.547 154.261 97.4217 155.135 98.5002 155.135H107.2C107.364 157.663 107.771 160.178 108.419 162.643H95.7658C94.6872 162.643 93.8126 163.517 93.8126 164.596C93.8126 165.674 94.6872 166.549 95.7658 166.549H109.666C111.582 171.617 114.576 176.368 118.65 180.442C125.085 186.877 133.608 190.913 142.648 191.806C143.938 191.933 145.229 191.996 146.519 191.996C154.141 191.996 161.665 189.79 168.05 185.633C168.954 185.044 169.21 183.834 168.621 182.93C168.032 182.026 166.822 181.77 165.918 182.359C151.942 191.46 133.225 189.492 121.412 177.68C107.552 163.82 107.552 141.268 121.412 127.408C135.272 113.548 157.824 113.548 171.684 127.408C183.481 139.205 185.459 157.907 176.388 171.876C175.801 172.781 176.058 173.991 176.962 174.578C177.867 175.165 179.077 174.908 179.664 174.003C184.511 166.539 186.692 157.525 185.807 148.619ZM136.753 102.645C136.753 101.137 137.979 99.9109 139.487 99.9109H153.55C155.058 99.9109 156.284 101.137 156.284 102.645C156.284 104.153 155.058 105.38 153.55 105.38H153.199H139.837H139.487C137.979 105.38 136.753 104.153 136.753 102.645ZM141.79 113.394V109.286H151.246V113.387C148.106 113.014 144.93 113.016 141.79 113.394Z" fill="#EB4763"/>
<path d="M173.066 177.107C172.55 177.107 172.048 177.316 171.685 177.679C171.32 178.042 171.113 178.546 171.113 179.06C171.113 179.574 171.32 180.078 171.685 180.441C172.048 180.806 172.55 181.013 173.066 181.013C173.579 181.013 174.081 180.806 174.447 180.441C174.81 180.078 175.019 179.574 175.019 179.06C175.019 178.546 174.81 178.042 174.447 177.679C174.081 177.316 173.579 177.107 173.066 177.107Z" fill="#EB4763"/>
<path d="M146.548 122.245C129.841 122.245 116.249 135.837 116.249 152.544C116.249 169.251 129.841 182.843 146.548 182.843C163.255 182.843 176.847 169.251 176.847 152.544C176.847 135.837 163.255 122.245 146.548 122.245ZM146.548 178.936C131.995 178.936 120.155 167.097 120.155 152.544C120.155 137.991 131.995 126.151 146.548 126.151C161.101 126.151 172.941 137.991 172.941 152.544C172.941 167.097 161.101 178.936 146.548 178.936Z" fill="#EB4763"/>
<path d="M158.903 137.427L149.229 147.1C148.42 146.7 147.51 146.474 146.548 146.474C145.586 146.474 144.676 146.7 143.867 147.1L139.538 142.771C138.775 142.008 137.538 142.008 136.775 142.771C136.013 143.533 136.013 144.77 136.775 145.533L141.105 149.862C140.705 150.671 140.479 151.581 140.479 152.543C140.479 155.89 143.201 158.613 146.548 158.613C149.895 158.613 152.617 155.89 152.617 152.543C152.617 151.581 152.391 150.671 151.991 149.862L161.381 140.472L161.665 140.189C162.428 139.426 162.428 138.189 161.665 137.427C160.902 136.664 159.666 136.664 158.903 137.427ZM146.548 154.706C145.355 154.706 144.385 153.736 144.385 152.544C144.385 151.351 145.355 150.381 146.548 150.381C147.741 150.381 148.711 151.351 148.711 152.544C148.711 153.736 147.741 154.706 146.548 154.706Z" fill="#EB4763"/>
<path d="M167.431 150.614H165.621C164.543 150.614 163.668 151.489 163.668 152.567C163.668 153.646 164.543 154.521 165.621 154.521H167.431C168.509 154.521 169.384 153.646 169.384 152.567C169.384 151.489 168.509 150.614 167.431 150.614Z" fill="#EB4763"/>
<path d="M127.474 150.567H125.665C124.587 150.567 123.712 151.441 123.712 152.52C123.712 153.598 124.587 154.473 125.665 154.473H127.474C128.553 154.473 129.428 153.598 129.428 152.52C129.428 151.441 128.553 150.567 127.474 150.567Z" fill="#EB4763"/>
<path d="M146.572 135.423C147.65 135.423 148.525 134.549 148.525 133.47V131.661C148.525 130.582 147.65 129.708 146.572 129.708C145.493 129.708 144.619 130.582 144.619 131.661V133.47C144.619 134.549 145.493 135.423 146.572 135.423Z" fill="#EB4763"/>
<path d="M146.524 169.664C145.446 169.664 144.571 170.538 144.571 171.617V173.426C144.571 174.505 145.446 175.38 146.524 175.38C147.603 175.38 148.477 174.505 148.477 173.426V171.617C148.477 170.538 147.603 169.664 146.524 169.664Z" fill="#EB4763"/>
<path d="M87.9531 162.642C87.4395 162.642 86.9355 162.851 86.5723 163.214C86.209 163.577 86 164.081 86 164.595C86 165.111 86.2088 165.613 86.5723 165.976C86.9357 166.339 87.4395 166.548 87.9531 166.548C88.4668 166.548 88.9707 166.339 89.3338 165.976C89.6971 165.613 89.9062 165.109 89.9062 164.595C89.9062 164.081 89.6973 163.577 89.3338 163.214C88.9707 162.851 88.4668 162.642 87.9531 162.642Z" fill="#EB4763"/>
</g>
<defs>
<clipPath id="clip0">
<rect x="86" y="94" width="100" height="100" rx="16" fill="white"/>
</clipPath>
</defs>
</svg>
