<svg width="384" height="256" viewBox="0 0 384 256" fill="none" xmlns="http://www.w3.org/2000/svg">
<mask id="mask0" style="mask-type:alpha" maskUnits="userSpaceOnUse" x="0" y="0" width="384" height="256">
<path d="M0 16C0 7.16344 7.16344 0 16 0H368C376.837 0 384 7.16344 384 16V240C384 248.837 376.837 256 368 256H16C7.16345 256 0 248.837 0 240V16Z" fill="#EB4763"/>
</mask>
<g mask="url(#mask0)">
<path d="M0 8C0 -0.836555 7.16344 -8 16 -8H368C376.837 -8 384 -0.836555 384 8V240C384 248.837 376.837 256 368 256H16C7.16345 256 0 248.837 0 240V8Z" fill="#EB4763"/>
<rect x="33" y="57" width="222" height="174" rx="15" fill="#F1E1E6" stroke="#EB4763" stroke-width="2" stroke-dasharray="3 3"/>
<rect x="266" y="25" width="85" height="147" rx="15" fill="#F1E1E6" stroke="#EB4763" stroke-width="2" stroke-dasharray="3 3"/>
<rect x="305" y="51" width="25" height="6" rx="3" transform="rotate(-180 305 51)" fill="#574142"/>
<rect x="336" y="67" width="16" height="6" rx="3" transform="rotate(-180 336 67)" fill="#574142"/>
<rect x="302" y="77" width="22" height="6" rx="3" transform="rotate(-180 302 77)" fill="#574142"/>
<rect x="336" y="103" width="56" height="6" rx="3" transform="rotate(-180 336 103)" fill="#574142"/>
<rect x="328" y="77" width="23" height="6" rx="3" transform="rotate(-180 328 77)" fill="#574142"/>
<rect x="325" y="109" width="18" height="18" rx="9" transform="rotate(-180 325 109)" fill="#F1E1E6" stroke="#574142" stroke-width="6"/>
<rect x="317" y="67" width="37" height="6" rx="3" transform="rotate(-180 317 67)" fill="#574142"/>
<rect x="209" y="25" width="46" height="22" rx="11" fill="#EB4763" stroke="#F1E1E6" stroke-width="2" stroke-dasharray="3 3"/>
<rect x="177" y="25" width="22" height="22" rx="11" fill="#EB4763" stroke="#F1E1E6" stroke-width="2" stroke-dasharray="3 3"/>
</g>
<g clip-path="url(#clip0)">
<path d="M189.004 99C179.902 99.6258 115.956 105.715 111.486 149.556C110.943 154.243 110.636 158.95 110.433 163.661L141.875 132.251C142.974 131.152 144.758 131.152 145.857 132.251C146.956 133.349 146.956 135.13 145.857 136.229L100.242 181.798C98.5928 183.445 98.5928 186.117 100.242 187.764C101.89 189.411 104.564 189.411 106.215 187.764L116.257 177.732C123.656 177.708 131.049 177.288 138.398 176.439C147.799 175.482 155.453 171.786 161.704 166.5H143.958L169.761 157.908C171.739 155.29 173.518 152.51 175.114 149.625H160.851L179.579 140.272C186.946 122.354 188.686 103.616 189.004 99Z" fill="#EB4763"/>
</g>
<defs>
<clipPath id="clip0">
<rect width="90" height="90" fill="white" transform="translate(99 99)"/>
</clipPath>
</defs>
</svg>
