<svg width="384" height="256" viewBox="0 0 384 256" fill="none" xmlns="http://www.w3.org/2000/svg">
<mask id="mask0" style="mask-type:alpha" maskUnits="userSpaceOnUse" x="0" y="0" width="384" height="256">
<path d="M0 16C0 7.16344 7.16344 0 16 0H368C376.837 0 384 7.16344 384 16V240C384 248.837 376.837 256 368 256H16C7.16345 256 0 248.837 0 240V16Z" fill="#EB4763"/>
</mask>
<g mask="url(#mask0)">
<path d="M0 16C0 7.16344 7.16344 0 16 0H368C376.837 0 384 7.16344 384 16V240C384 248.837 376.837 256 368 256H16C7.16345 256 0 248.837 0 240V16Z" fill="#EB4763"/>
<rect x="33" y="57" width="222" height="174" rx="15" fill="#F1E1E6" stroke="#EB4763" stroke-width="2" stroke-dasharray="3 3"/>
<rect x="185" y="137" width="105" height="6" rx="3" transform="rotate(180 185 137)" fill="#574142"/>
<rect x="80" y="157" width="16" height="6" rx="3" transform="rotate(180 80 157)" fill="#574142"/>
<rect x="113" y="147" width="49" height="6" rx="3" transform="rotate(180 113 147)" fill="#574142"/>
<rect x="160" y="157" width="73" height="6" rx="3" transform="rotate(180 160 157)" fill="#574142"/>
<rect x="224" y="147" width="106" height="6" rx="3" transform="rotate(180 224 147)" fill="#574142"/>
<rect x="216" y="137" width="24" height="6" rx="3" transform="rotate(-180 216 137)" fill="#574142"/>
<rect x="217" y="157" width="49" height="6" rx="3" transform="rotate(-180 217 157)" fill="#574142"/>
<rect x="266" y="25" width="85" height="147" rx="15" fill="#F1E1E6" stroke="#EB4763" stroke-width="2" stroke-dasharray="3 3"/>
<rect x="305" y="51" width="25" height="6" rx="3" transform="rotate(-180 305 51)" fill="#574142"/>
<rect x="336" y="67" width="32" height="6" rx="3" transform="rotate(-180 336 67)" fill="#574142"/>
<rect x="313" y="77" width="33" height="6" rx="3" transform="rotate(-180 313 77)" fill="#574142"/>
<rect x="328" y="77" width="12" height="6" rx="3" transform="rotate(-180 328 77)" fill="#574142"/>
<rect x="332" y="109" width="50" height="18" rx="9" transform="rotate(-180 332 109)" stroke="#574142" stroke-width="6"/>
<rect x="300" y="67" width="20" height="6" rx="3" transform="rotate(-180 300 67)" fill="#574142"/>
<rect x="209" y="25" width="46" height="22" rx="11" fill="#EB4763" stroke="#F1E1E6" stroke-width="2" stroke-dasharray="3 3"/>
<rect x="177" y="25" width="22" height="22" rx="11" fill="#EB4763" stroke="#F1E1E6" stroke-width="2" stroke-dasharray="3 3"/>
</g>
</svg>
