<svg width="384" height="256" viewBox="0 0 384 256" fill="none" xmlns="http://www.w3.org/2000/svg">
<mask id="mask0" style="mask-type:alpha" maskUnits="userSpaceOnUse" x="0" y="0" width="384" height="256">
<path d="M0 16C0 7.16344 7.16344 0 16 0H368C376.837 0 384 7.16344 384 16V240C384 248.837 376.837 256 368 256H16C7.16345 256 0 248.837 0 240V16Z" fill="#EB4763"/>
</mask>
<g mask="url(#mask0)">
<path d="M0 16C0 7.16344 7.16344 0 16 0H368C376.837 0 384 7.16344 384 16V248C384 256.837 376.837 264 368 264H16C7.16345 264 0 256.837 0 248V16Z" fill="#EB4763"/>
<rect x="33" y="225" width="222" height="46" rx="15" fill="#F1E1E6" stroke="#EB4763" stroke-width="2" stroke-dasharray="3 3"/>
<rect x="266" y="193" width="85" height="86" rx="15" fill="#F1E1E6" stroke="#EB4763" stroke-width="2" stroke-dasharray="3 3"/>
<rect x="304" y="214" width="24" height="6" rx="3" transform="rotate(-180 304 214)" fill="#574142"/>
<rect x="336" y="230" width="56" height="6" rx="3" transform="rotate(-180 336 230)" fill="#574142"/>
<rect x="320" y="240" width="40" height="6" rx="3" transform="rotate(-180 320 240)" fill="#574142"/>
<rect x="336" y="240" width="10" height="6" rx="3" transform="rotate(-180 336 240)" fill="#574142"/>
<rect x="209" y="193" width="46" height="22" rx="11" fill="#EB4763" stroke="#F1E1E6" stroke-width="2" stroke-dasharray="3 3"/>
<rect x="179" y="193" width="22" height="22" rx="11" fill="#EB4763" stroke="#F1E1E6" stroke-width="2" stroke-dasharray="3 3"/>
<rect x="33" y="33" width="318" height="126" rx="15" fill="#F1E1E6" stroke="#EB4763" stroke-width="2" stroke-dasharray="3 3"/>
<rect x="229" y="145" width="74" height="18" rx="9" transform="rotate(-180 229 145)" stroke="#574142" stroke-width="6"/>
<rect x="229" y="117" width="74" height="18" rx="9" transform="rotate(-180 229 117)" stroke="#574142" stroke-width="6"/>
<rect x="176" y="54" width="24" height="6" rx="3" transform="rotate(-180 176 54)" fill="#574142"/>
<rect x="232" y="70" width="34" height="6" rx="3" transform="rotate(-180 232 70)" fill="#574142"/>
<rect x="192" y="70" width="40" height="6" rx="3" transform="rotate(-180 192 70)" fill="#574142"/>
<rect x="232" y="80" width="80" height="6" rx="3" transform="rotate(-180 232 80)" fill="#574142"/>
<rect x="256" y="104" width="80" height="6" rx="3" fill="#574142"/>
<rect x="279" y="99" width="18" height="18" rx="9" fill="#F1E1E6" stroke="#574142" stroke-width="6"/>
<rect x="304" y="53.9999" width="48" height="6" rx="3" transform="rotate(-180 304 53.9999)" fill="#574142"/>
<rect x="286" y="70" width="6" height="6" rx="3" transform="rotate(-180 286 70)" fill="#574142"/>
<rect x="336" y="70" width="45" height="6" rx="3" transform="rotate(-180 336 70)" fill="#574142"/>
<rect x="275" y="70" width="19" height="6" rx="3" transform="rotate(-180 275 70)" fill="#574142"/>
<rect x="336" y="80" width="16" height="6" rx="3" transform="rotate(-180 336 80)" fill="#574142"/>
<rect x="314" y="80" width="58" height="6" rx="3" transform="rotate(-180 314 80)" fill="#574142"/>
<rect x="80" y="54" width="32" height="6" rx="3" transform="rotate(-180 80 54)" fill="#574142"/>
<rect x="128" y="70" width="80" height="6" rx="3" transform="rotate(-180 128 70)" fill="#574142"/>
<rect x="128" y="80" width="58" height="6" rx="3" transform="rotate(-180 128 80)" fill="#574142"/>
<rect x="72" y="120" width="24" height="24" rx="12" transform="rotate(-180 72 120)" fill="#574142"/>
<rect x="101" y="117" width="18" height="18" rx="9" transform="rotate(-180 101 117)" stroke="#574142" stroke-width="6"/>
<rect x="64" y="80" width="16" height="6" rx="3" transform="rotate(-180 64 80)" fill="#574142"/>
</g>
</svg>
