<svg width="45" height="45" viewBox="0 0 193 192" fill="none" xmlns="http://www.w3.org/2000/svg">
<path d="M103.965 10.5366L167.104 46.9896C171.59 49.5798 174.354 54.3667 174.354 59.547V132.453C174.354 137.633 171.59 142.42 167.104 145.01L103.965 181.463C99.4788 184.054 93.9514 184.054 89.4651 181.463L26.3267 145.01C21.8404 142.42 19.0767 137.633 19.0767 132.453V59.547C19.0767 54.3666 21.8404 49.5798 26.3267 46.9896L89.4651 10.5366C93.9514 7.94647 99.4788 7.94647 103.965 10.5366Z" stroke="#606060" stroke-width="11"/>
<mask id="mask0" style="mask-type:alpha" maskUnits="userSpaceOnUse" x="11" y="2" width="170" height="132">
<path d="M12.5 2H181V58.1513H167.809H27.5038L28 134H11.2249L12.5 2Z" fill="#FF3131"/>
</mask>
<g mask="url(#mask0)">
<path d="M103.965 10.5366L167.104 46.9896C171.59 49.5798 174.354 54.3667 174.354 59.547V132.453C174.354 137.633 171.59 142.42 167.104 145.01L103.965 181.463C99.4788 184.054 93.9514 184.054 89.4651 181.463L26.3267 145.01C21.8404 142.42 19.0767 137.633 19.0767 132.453V59.547C19.0767 54.3667 21.8404 49.5798 26.3267 46.9896L89.4651 10.5366C93.9514 7.94647 99.4788 7.94647 103.965 10.5366Z" stroke="#FBFBFB" stroke-width="11"/>
</g>
<mask id="mask1" style="mask-type:alpha" maskUnits="userSpaceOnUse" x="1" y="56" width="182" height="56">
<path d="M1 112L1 56H182.715V112H1Z" fill="white"/>
</mask>
<g mask="url(#mask1)">
<path d="M104.25 -69.4634L167.388 -33.0104C171.875 -30.4202 174.638 -25.6333 174.638 -20.453V52.453C174.638 57.6333 171.875 62.4202 167.388 65.0104L104.25 101.463C99.7637 104.054 94.2363 104.054 89.75 101.463L26.6116 65.0104C22.1252 62.4202 19.3616 57.6333 19.3616 52.453V-20.453C19.3616 -25.6333 22.1252 -30.4202 26.6116 -33.0104L89.75 -69.4634C94.2363 -72.0535 99.7637 -72.0535 104.25 -69.4634Z" stroke="#FBFBFB" stroke-width="11"/>
</g>
<path d="M98.1328 42.3127L118.471 54.5155C119.442 55.0981 119.442 56.5054 118.471 57.088L98.1328 69.2909C97.6578 69.5759 97.0644 69.5759 96.5893 69.2909L76.2512 57.088C75.2802 56.5054 75.2802 55.0981 76.2512 54.5155L96.5893 42.3127C97.0644 42.0276 97.6578 42.0276 98.1328 42.3127Z" stroke="#FBFBFB" stroke-width="9"/>
</svg>
